<svg width="140" height="60" viewBox="0 0 140 60" fill="none" xmlns="http://www.w3.org/2000/svg">
<g clip-path="url(#clip0_1020_12414)">
<path fill-rule="evenodd" clip-rule="evenodd" d="M83.5364 26.6675V24.7216H79.7812V47.2959H83.6724V39.3162C85.5568 40.5662 85.5432 41.4243 89.55 41.4243C91.6002 41.4044 93.5633 40.598 95.0289 39.1738C96.4945 37.7496 97.349 35.8178 97.4139 33.7824C97.4139 30.8432 97.3323 29.0526 95.0057 26.7689C93.7647 25.6515 92.227 24.9111 90.5751 24.6356C88.9232 24.3602 87.2264 24.5612 85.686 25.2148C83.9513 26.0324 84.4071 26.4175 83.5364 26.6472M83.6996 33.1337C83.6996 28.7824 87.4547 26.9783 90.5023 28.1675C91.0524 28.3947 91.5588 28.7147 91.9989 29.1135C94.8969 31.8162 93.618 38.1405 88.5976 38.1472C87.9426 38.1455 87.2946 38.0145 86.6911 37.7617C86.0877 37.5089 85.5409 37.1394 85.0825 36.6747C84.6242 36.2101 84.2635 35.6595 84.0214 35.0551C83.7793 34.4506 83.6607 33.8044 83.6724 33.154L83.6996 33.1337Z" fill="black"/>
<path fill-rule="evenodd" clip-rule="evenodd" d="M102.802 26.6656V24.7196H99.0469V47.2939H102.965V39.3142C103.727 39.821 103.407 39.9426 104.972 40.7264C109.523 43.0034 116.68 39.8615 116.68 33.7804C116.68 31.7129 116.822 30.8412 115.863 28.9088C113.394 23.9291 106.605 23.5642 103.822 25.8818C103.353 26.2737 103.435 26.4764 102.802 26.6453M102.965 33.1318C102.965 28.7804 106.72 26.9764 109.768 28.1656C114.462 29.9966 113.571 38.1385 107.87 38.1453C107.217 38.1409 106.571 38.0079 105.97 37.7539C105.369 37.4999 104.824 37.13 104.368 36.6656C103.912 36.2012 103.553 35.6515 103.312 35.0484C103.071 34.4453 102.954 33.8007 102.965 33.152V33.1318Z" fill="black"/>
<path fill-rule="evenodd" clip-rule="evenodd" d="M62.4734 26.5084C62.5618 27.6166 63.555 28.4949 63.7795 29.4274C63.9904 29.3733 66.8407 27.4882 69.4258 27.8598C71.7795 28.2044 73.0244 28.9949 73.0856 31.5355C68.8747 31.5355 61.8203 30.6571 61.8203 36.5625C61.8203 39.4341 64.5822 41.4274 67.5346 41.4274C69.2761 41.4274 71.072 41.3328 72.3849 40.2517C72.655 39.9758 72.9437 39.7185 73.2489 39.4814V41.2652H77.004C77.004 38.9341 77.2285 30.8395 76.6434 28.9747C76.3647 28.0893 75.9166 27.2657 75.3237 26.549C73.6571 24.7247 70.9428 24.5625 68.6775 24.5625C66.4627 24.5965 64.3062 25.2729 62.4734 26.5084ZM68.8407 38.6706C64.7115 38.6706 64.6162 34.1301 68.8407 34.1301H73.0856V35.4274C73.0856 37.3936 70.8679 38.6706 68.8407 38.6706Z" fill="black"/>
<path fill-rule="evenodd" clip-rule="evenodd" d="M45.0078 22.9367H52.1915V41.261H56.2731V22.9367H63.4568V19.5312H45.0078V22.9367Z" fill="black"/>
<path fill-rule="evenodd" clip-rule="evenodd" d="M121.904 27.0287V24.7247H118.148V41.2652H122.067C122.067 38.3125 121.625 31.8598 123.04 29.9071C123.577 29.1927 124.319 28.6563 125.169 28.3681C126.019 28.08 126.936 28.0535 127.802 28.2922V24.5625C125.761 24.5625 124.4 24.853 122.897 26.0152C122.353 26.4274 122.339 26.6909 121.924 26.9949" fill="black"/>
<path fill-rule="evenodd" clip-rule="evenodd" d="M134.312 23.909H135.129V21.3144C135.571 21.8279 136.163 23.105 136.598 23.4225C137.149 23.2739 137.244 22.882 137.523 22.3955C137.714 21.9662 138.014 21.5936 138.394 21.3144V23.909H139.074V19.5306C138.265 19.5306 138.571 19.3955 138.17 19.936C137.653 20.6117 137.326 21.8212 136.625 22.2874C136.312 21.7063 136.095 21.3347 135.734 20.7333C135.272 19.9563 135.36 19.5509 134.34 19.5306L134.312 23.909Z" fill="black"/>
<path fill-rule="evenodd" clip-rule="evenodd" d="M129.742 20.1835H131.212V23.9132H132.028C132.028 19.6497 131.627 20.1835 133.497 20.1835V19.5078H129.742V20.1835Z" fill="black"/>
<path fill-rule="evenodd" clip-rule="evenodd" d="M38.9116 60V40.5405C18.3673 40.5405 19.6191 38.8716 19.6191 19.2973H38.9524L38.9116 0H0.163265C0.163265 2.34459 0.0884354 5.08784 0 8.06081V27.5946C0.401361 34.5878 1.45578 41.0473 3.90476 45.2703C12.2041 59.5541 24.0476 60 38.9116 60Z" fill="#009832"/>
</g>
<defs>
<clipPath id="clip0_1020_12414">
<rect width="139.048" height="60" fill="white"/>
</clipPath>
</defs>
</svg>
