<svg width="49" height="48" viewBox="0 0 49 48" fill="none" xmlns="http://www.w3.org/2000/svg">
<path d="M19.725 1.55608L2.79317 15.1297C0.887419 16.6461 -0.334254 19.8499 0.0811018 22.2467L3.33061 41.7145C3.917 45.1874 7.23986 48 10.7582 48H38.1228C41.6167 48 44.964 45.163 45.5503 41.7145L48.7999 22.2467C49.1908 19.8499 47.9691 16.6461 46.0878 15.1297L29.156 1.58056C26.5417 -0.522744 22.3149 -0.522768 19.725 1.55608Z" fill="#DEF7EC"/>
<path d="M27.9998 33H25.7598V29.98H19.0598V28.24L25.6198 19.6H27.9998V28.02H30.2598V29.98H27.9998V33ZM21.5398 28.02H25.7598V22.52L21.5398 28.02Z" fill="#009832"/>
</svg>
