<svg width="49" height="136" viewBox="0 0 49 136" fill="none" xmlns="http://www.w3.org/2000/svg">
<path d="M19.725 1.55608L2.79317 15.1297C0.887419 16.6461 -0.334254 19.8499 0.0811018 22.2467L3.33061 41.7145C3.917 45.1874 7.23986 48 10.7582 48H38.1228C41.6167 48 44.964 45.163 45.5503 41.7145L48.7999 22.2467C49.1908 19.8499 47.9691 16.6461 46.0878 15.1297L29.156 1.58056C26.5417 -0.522744 22.3149 -0.522768 19.725 1.55608Z" fill="#DEF7EC"/>
<path d="M24.7277 33.2C21.7677 33.2 19.9477 31.54 19.4477 29.54L21.2477 27.94C21.6477 29.84 22.5677 31.06 24.8277 31.06C26.3877 31.06 27.2677 30.34 27.2677 29.16C27.2677 27.78 26.1477 27.22 24.4877 27.22H22.3677V25.36H24.5677C26.0077 25.36 26.8077 24.78 26.8077 23.56C26.8077 22.44 26.1077 21.56 24.6077 21.56C22.9877 21.56 21.7677 22.48 21.4877 24.22L19.6877 22.68C20.2877 20.86 22.1077 19.4 24.6877 19.4C27.7877 19.4 29.1277 21.24 29.1277 23.06C29.1277 24.7 27.8477 25.94 26.0877 26.12C28.6277 26.28 29.6677 27.74 29.6677 29.54C29.6677 31.78 27.6677 33.2 24.7277 33.2Z" fill="#009832"/>
<line x1="25.4375" y1="64" x2="25.4375" y2="136" stroke="#009832" stroke-width="2"/>
</svg>
